<svg width="20" height="20" viewBox="0 0 20 20" fill="none" xmlns="http://www.w3.org/2000/svg"><path d="m5.43 13.92 1.27-3.16a4 4 0 0 1 .88-1.34L14.5 2.5a2.12 2.12 0 1 1 3 3l-6.92 6.92a4 4 0 0 1-1.34.89l-3.16 1.26a.5.5 0 0 1-.65-.65Z" fill="currentColor"/><path d="M3.5 5.75c0-.69.56-1.25 1.25-1.25H10A.75.75 0 1 0 10 3H4.75A2.75 2.75 0 0 0 2 5.75v9.5A2.75 2.75 0 0 0 4.75 18h9.5A2.75 2.75 0 0 0 17 15.25V10a.75.75 0 1 0-1.5 0v5.25c0 .69-.56 1.25-1.25 1.25h-9.5c-.69 0-1.25-.56-1.25-1.25v-9.5Z" fill="currentColor"/></svg>